# xmcd
#
# Track frame offsets:
#	150
#	18992
#	35800
#	52240
#	74752
#	89380
#	103005
#	128820
#	145170
#	153835
#
# Disc length: 2245 seconds
#
# Revision: 1
# Processed by: cddbd v1.5.1PL0 Copyright (c) Steve Scherf et al.
# Submitted via: CDex 1.50Beta5
#
DISCID=8f08c30a
DTITLE=hhc - classic
DYEAR=1900
DGENRE=Classical
TTITLE0=朝
TTITLE1=メヌエット
TTITLE2=愛のあいさつ
TTITLE3=カノン
TTITLE4=歌劇「カヴァレリア・ルスティカーナ」
TTITLE5=シチリアーナ
TTITLE6=タイスの瞑想曲
TTITLE7=「アルルの女」第二組曲よりメヌエット
TTITLE8=フルート・ソナタ第二番よりシチリアーニ
TTITLE9=ラルゴ
EXTD=
EXTT0=
EXTT1=
EXTT2=
EXTT3=
EXTT4=
EXTT5=
EXTT6=
EXTT7=
EXTT8=
EXTT9=
PLAYORDER=
